<svg width="40" height="40" viewBox="0 0 40 40" fill="none" xmlns="http://www.w3.org/2000/svg">
<path d="M0 13.3333V1.90476H3.84154V6.38095C5.47419 4.34921 7.46731 2.77778 9.82089 1.66667C12.1745 0.555556 14.6631 0 17.2869 0C22.0888 0 26.1705 1.66667 29.5318 5C32.8932 8.33333 34.5738 12.381 34.5738 17.1429H30.7323C30.7323 13.4286 29.4275 10.2775 26.8178 7.68952C24.2081 5.10159 21.0311 3.80825 17.2869 3.80952C15.078 3.80952 13.0132 4.31746 11.0924 5.33333C9.17167 6.34921 7.55502 7.74603 6.2425 9.52381H11.5246V13.3333H0ZM0.0960383 19.0476H4.03361C4.41777 22 5.64258 24.5003 7.70804 26.5486C9.77351 28.5968 12.2462 29.8425 15.126 30.2857L17.431 34.2857C13.0132 34.2857 9.13966 32.8336 5.81032 29.9295C2.48099 27.0254 0.57623 23.3981 0.0960383 19.0476ZM19.88 22.381L15.3661 17.9048V7.61905H19.2077V16.381L21.8968 19.0476L19.88 22.381ZM28.7635 40L28.1873 37.1429C27.8031 36.9841 27.4427 36.8171 27.1059 36.6419C26.7691 36.4667 26.4253 36.2527 26.0744 36L23.2893 36.8571L21.3685 33.619L23.5774 31.7143C23.5134 31.3016 23.4814 30.8889 23.4814 30.4762C23.4814 30.0635 23.5134 29.6508 23.5774 29.2381L21.3685 27.3333L23.2893 24.0952L26.0744 24.9524C26.4266 24.6984 26.7704 24.4844 27.1059 24.3105C27.4414 24.1365 27.8018 23.9695 28.1873 23.8095L28.7635 20.9524H32.605L33.1813 23.8095C33.5654 23.9683 33.9336 24.1511 34.2857 24.3581C34.6379 24.5651 34.974 24.7949 35.2941 25.0476L38.0792 24.0952L40 27.4286L37.7911 29.3333C37.8551 29.746 37.8872 30.1429 37.8872 30.5238C37.8872 30.9048 37.8551 31.3016 37.7911 31.7143L40 33.619L38.0792 36.8571L35.2941 36C34.942 36.254 34.5982 36.4686 34.2627 36.6438C33.9272 36.819 33.5667 36.9854 33.1813 37.1429L32.605 40H28.7635ZM30.6843 34.2857C31.7407 34.2857 32.6454 33.9124 33.3983 33.1657C34.1513 32.419 34.5271 31.5225 34.5258 30.4762C34.5258 29.4286 34.1493 28.5314 33.3964 27.7848C32.6435 27.0381 31.7401 26.6654 30.6862 26.6667C29.6298 26.6667 28.7251 27.04 27.9721 27.7867C27.2192 28.5333 26.8434 29.4298 26.8447 30.4762C26.8447 31.5238 27.2211 32.421 27.9741 33.1676C28.727 33.9143 29.6291 34.287 30.6843 34.2857Z" fill="black"/>
</svg>
